TITLE ""
FILE "Step1_Track40.mp3" MP3
  TRACK 01 AUDIO
    TITLE "Step1_Track40_01"
    INDEX 01 00:00:00
  TRACK 02 AUDIO
    TITLE "Step1_Track40_02"
    INDEX 01 00:00:24
  TRACK 03 AUDIO
    TITLE "Step1_Track40_03"
    INDEX 01 00:01:57
  TRACK 04 AUDIO
    TITLE "Step1_Track40_04"
    INDEX 01 00:02:33
  TRACK 05 AUDIO
    TITLE "Step1_Track40_05"
    INDEX 01 00:03:30
  TRACK 06 AUDIO
    TITLE "Step1_Track40_06"
    INDEX 01 00:03:54
  TRACK 07 AUDIO
    TITLE "Step1_Track40_07"
    INDEX 01 00:05:53
  TRACK 08 AUDIO
    TITLE "Step1_Track40_08"
    INDEX 01 00:05:74
  TRACK 09 AUDIO
    TITLE "Step1_Track40_09"
    INDEX 01 00:06:74
  TRACK 10 AUDIO
    TITLE "Step1_Track40_10"
    INDEX 01 00:07:03
  TRACK 11 AUDIO
    TITLE "Step1_Track40_11"
    INDEX 01 00:08:73
  TRACK 12 AUDIO
    TITLE "Step1_Track40_12"
    INDEX 01 00:09:35
  TRACK 13 AUDIO
    TITLE "Step1_Track40_13"
    INDEX 01 00:10:26
  TRACK 14 AUDIO
    TITLE "Step1_Track40_14"
    INDEX 01 00:10:28
  TRACK 15 AUDIO
    TITLE "Step1_Track40_15"
    INDEX 01 00:12:39
  TRACK 16 AUDIO
    TITLE "Step1_Track40_16"
    INDEX 01 00:12:59
  TRACK 17 AUDIO
    TITLE "Step1_Track40_17"
    INDEX 01 00:13:50
  TRACK 18 AUDIO
    TITLE "Step1_Track40_18"
    INDEX 01 00:13:64
  TRACK 19 AUDIO
    TITLE "Step1_Track40_19"
    INDEX 01 00:15:69
  TRACK 20 AUDIO
    TITLE "Step1_Track40_20"
    INDEX 01 00:16:23
  TRACK 21 AUDIO
    TITLE "Step1_Track40_21"
    INDEX 01 00:17:17
  TRACK 22 AUDIO
    TITLE "Step1_Track40_22"
    INDEX 01 00:17:26
  TRACK 23 AUDIO
    TITLE "Step1_Track40_23"
    INDEX 01 00:19:31
  TRACK 24 AUDIO
    TITLE "Step1_Track40_24"
    INDEX 01 00:19:63
  TRACK 25 AUDIO
    TITLE "Step1_Track40_25"
    INDEX 01 00:20:66
  TRACK 26 AUDIO
    TITLE "Step1_Track40_26"
    INDEX 01 00:21:07
  TRACK 27 AUDIO
    TITLE "Step1_Track40_27"
    INDEX 01 00:23:07
  TRACK 28 AUDIO
    TITLE "Step1_Track40_28"
    INDEX 01 00:23:49
  TRACK 29 AUDIO
    TITLE "Step1_Track40_29"
    INDEX 01 00:24:54
  TRACK 30 AUDIO
    TITLE "Step1_Track40_30"
    INDEX 01 00:24:70
  TRACK 31 AUDIO
    TITLE "Step1_Track40_31"
    INDEX 01 00:27:27
  TRACK 32 AUDIO
    TITLE "Step1_Track40_32"
    INDEX 01 00:27:48
  TRACK 33 AUDIO
    TITLE "Step1_Track40_33"
    INDEX 01 00:28:30
  TRACK 34 AUDIO
    TITLE "Step1_Track40_34"
    INDEX 01 00:28:56
  TRACK 35 AUDIO
    TITLE "Step1_Track40_35"
    INDEX 01 00:30:60
  TRACK 36 AUDIO
    TITLE "Step1_Track40_36"
    INDEX 01 00:31:09
  TRACK 37 AUDIO
    TITLE "Step1_Track40_37"
    INDEX 01 00:32:12
  TRACK 38 AUDIO
    TITLE "Step1_Track40_38"
    INDEX 01 00:32:24
  TRACK 39 AUDIO
    TITLE "Step1_Track40_39"
    INDEX 01 00:34:13
  TRACK 40 AUDIO
    TITLE "Step1_Track40_40"
    INDEX 01 00:34:35
  TRACK 41 AUDIO
    TITLE "Step1_Track40_41"
    INDEX 01 00:35:32
  TRACK 42 AUDIO
    TITLE "Step1_Track40_42"
    INDEX 01 00:35:34
  TRACK 43 AUDIO
    TITLE "Step1_Track40_43"
    INDEX 01 00:37:35
